# This file uses meters as units for non-parametric coordinates.

mtllib ChairRemake1OBJ.mtl
g default
v -23.748278 43.200310 8.472492
v 23.748302 43.200310 8.472492
v -23.748278 52.477982 8.472492
v 23.748302 52.477982 8.472492
v -18.212320 51.399727 -26.494921
v 18.212372 51.399727 -26.494921
v -18.212318 44.278564 -26.494921
v 18.212372 44.278564 -26.494921
v -11.755626 42.451744 14.776798
v 11.755650 42.451744 14.776798
v 11.755650 53.226547 14.776798
v -11.755626 53.226547 14.776798
v -7.086805 51.399727 -30.099386
v 7.087032 51.399727 -30.099386
v 7.087032 44.278564 -30.099386
v -7.086805 44.278564 -30.099386
vt 0.326982 0.610043
vt 0.412514 0.652658
vt 0.120888 0.889741
vt 0.305552 0.223890
vt 0.383743 0.249400
vt 0.084806 0.491656
vt 0.197686 0.915701
vt 0.292573 0.918328
vt 0.370088 0.895666
vt 0.176399 0.605105
vt 0.091199 0.645406
vt 0.205818 0.223387
vt 0.127371 0.248106
vt 0.168536 0.536315
vt 0.339653 0.537161
vt 0.423832 0.493352
vt 0.297125 0.965769
vt 0.190051 0.964792
vt 0.434013 0.589485
vt 0.418474 0.906164
vt 0.108120 0.938419
vt 0.027257 0.655766
vt 0.068525 0.580896
vt 0.475827 0.666374
vt 0.381486 0.945895
vt 0.072019 0.897722
vn 0.000000 0.000000 1.000000
vn 0.000000 0.000000 1.000000
vn 0.000000 0.000000 1.000000
vn 0.000000 0.000000 1.000000
vn 0.000000 0.999380 -0.035201
vn 0.000000 0.999380 -0.035201
vn 0.000000 0.999536 -0.030478
vn 0.000000 0.999536 -0.030478
vn 0.000000 0.000000 -1.000000
vn 0.000000 0.000000 -1.000000
vn 0.000000 0.000000 -1.000000
vn 0.000000 0.000000 -1.000000
vn 0.000000 -0.999535 -0.030478
vn 0.000000 -0.999535 -0.030478
vn 0.000000 -0.999380 -0.035201
vn 0.000000 -0.999380 -0.035201
vn 0.974407 0.000000 0.224789
vn 0.930160 0.000000 -0.367153
vn 0.930160 0.000000 -0.367153
vn 0.974407 0.000000 0.224789
vn -0.930159 -0.000000 -0.367157
vn -0.974408 -0.000000 0.224788
vn -0.974408 -0.000000 0.224788
vn -0.930159 -0.000000 -0.367157
vn 0.000000 -0.993024 -0.117910
vn 0.000000 -0.993024 -0.117910
vn 0.465306 0.000000 0.885150
vn 0.465306 0.000000 0.885150
vn 0.000000 0.993024 -0.117911
vn 0.000000 0.993024 -0.117911
vn -0.465306 0.000000 0.885150
vn -0.465306 0.000000 0.885150
vn 0.000000 1.000000 0.000002
vn 0.000000 1.000000 0.000002
vn 0.308214 0.000000 -0.951317
vn 0.308214 0.000000 -0.951317
vn 0.000000 -1.000000 0.000001
vn 0.000000 -1.000000 0.000001
vn -0.308210 -0.000000 -0.951319
vn -0.308210 -0.000000 -0.951319
s off
g pCube1
usemtl lambert5SG
f 9/14/1 10/15/2 11/1/3 12/10/4
s 1
f 3/11/5 4/2/6 6/9/7 5/3/8
s off
f 13/7/9 14/8/10 15/17/11 16/18/12
s 2
f 7/13/13 8/5/14 2/16/15 1/6/16
s 3
f 2/24/17 8/20/18 6/9/19 4/2/20
s 4
f 7/26/21 1/22/22 3/11/23 5/3/24
s 2
f 1/6/16 2/16/15 10/15/25 9/14/26
s 3
f 2/19/17 4/2/20 11/1/27 10/15/28
s 1
f 4/2/6 3/11/5 12/10/29 11/1/30
s 4
f 3/11/23 1/23/22 9/14/31 12/10/32
s 1
f 5/3/8 6/9/7 14/8/33 13/7/34
s 3
f 6/9/19 8/25/18 15/17/35 14/8/36
s 2
f 8/5/14 7/13/13 16/12/37 15/4/38
s 4
f 7/21/21 5/3/24 13/7/39 16/18/40
g default
v -21.220182 0.909257 5.447728
v -21.220182 0.909257 7.657368
v -21.974800 44.248320 4.693110
v -21.974800 44.248320 8.411986
v -18.255923 44.248320 4.693110
v -18.255923 44.248320 8.411986
v -19.010542 0.909257 5.447728
v -19.010542 0.909257 7.657368
v -18.638219 10.414228 8.029690
v -18.638219 10.414228 5.075407
v -21.592503 10.414228 5.075407
v -21.592503 10.414228 8.029690
vt 0.459288 0.151145
vt 0.482230 0.151778
vt 0.482320 0.414901
vt 0.569069 0.411894
vt 0.511267 0.414552
vt 0.540192 0.413546
vt 0.505132 0.151640
vt 0.528013 0.150697
vt 0.520634 0.077096
vt 0.503236 0.078134
vt 0.485885 0.078046
vt 0.537839 0.074840
vt 0.550885 0.148996
vt 0.468728 0.076689
vt 0.485979 0.060902
vt 0.453376 0.414599
vt 0.503180 0.060903
vn -0.999893 -0.014654 0.000000
vn -0.999893 -0.014654 0.000000
vn -0.999936 -0.011298 0.000000
vn -0.999936 -0.011298 0.000000
vn 0.000000 1.000000 0.000000
vn 0.000000 1.000000 0.000000
vn 0.000000 1.000000 0.000000
vn 0.000000 1.000000 0.000000
vn 0.999936 -0.011298 -0.000000
vn 0.999936 -0.011298 -0.000000
vn 0.999893 -0.014654 -0.000000
vn 0.999893 -0.014654 -0.000000
vn 0.000000 -1.000000 0.000000
vn 0.000000 -1.000000 0.000000
vn 0.000000 -1.000000 0.000000
vn 0.000000 -1.000000 0.000000
vn 0.000000 -0.014654 0.999893
vn 0.000000 -0.014654 0.999893
vn 0.000000 -0.011298 0.999936
vn 0.000000 -0.011298 0.999936
vn -0.000000 -0.014654 -0.999893
vn -0.000000 -0.014654 -0.999893
vn -0.000000 -0.011298 -0.999936
vn -0.000000 -0.011298 -0.999936
vn 0.999234 -0.039141 -0.000000
vn 0.999234 -0.039141 -0.000000
vn -0.000000 -0.039141 -0.999234
vn -0.000000 -0.039141 -0.999234
vn -0.999234 -0.039141 0.000000
vn -0.999234 -0.039141 0.000000
vn 0.000000 -0.039141 0.999234
vn 0.000000 -0.039141 0.999234
s 1
g ChairLegFront ChairLegFront1
usemtl lambert4SG
f 27/27/41 28/28/42 20/29/43 19/42/44
s off
f 19//45 20//46 22//47 21//48
s 2
f 21/32/49 22/31/50 25/33/51 26/34/52
s off
f 23/43/53 24/36/54 18/37/55 17/41/56
s 3
f 28/28/57 25/33/58 22/31/59 20/29/60
s 4
f 26/34/61 27/39/62 19/30/63 21/32/64
s 2
f 26/34/52 25/33/51 24/36/65 23/35/66
s 4
f 23/35/67 17/38/68 27/39/62 26/34/61
s 1
f 17/40/69 18/37/70 28/28/42 27/27/41
s 3
f 18/37/71 24/36/72 25/33/58 28/28/57
g default
v 19.018282 0.909257 5.447728
v 19.018282 0.909257 7.657368
v 18.263664 44.248320 4.693110
v 18.263664 44.248320 8.411986
v 21.982541 44.248320 4.693110
v 21.982541 44.248320 8.411986
v 21.227923 0.909257 5.447728
v 21.227923 0.909257 7.657368
v 21.600245 10.414228 8.029690
v 21.600245 10.414228 5.075407
v 18.645961 10.414228 5.075407
v 18.645961 10.414228 8.029690
vt 0.459288 0.151145
vt 0.482230 0.151778
vt 0.482320 0.414901
vt 0.569069 0.411894
vt 0.511267 0.414552
vt 0.540192 0.413546
vt 0.505132 0.151640
vt 0.528013 0.150697
vt 0.520634 0.077096
vt 0.503236 0.078134
vt 0.485885 0.078046
vt 0.537839 0.074840
vt 0.550885 0.148996
vt 0.468728 0.076689
vt 0.485979 0.060902
vt 0.453376 0.414599
vt 0.503180 0.060903
vn -0.999893 -0.014654 0.000000
vn -0.999893 -0.014654 0.000000
vn -0.999936 -0.011298 0.000000
vn -0.999936 -0.011298 0.000000
vn 0.000000 1.000000 0.000000
vn 0.000000 1.000000 0.000000
vn 0.000000 1.000000 0.000000
vn 0.000000 1.000000 0.000000
vn 0.999936 -0.011298 -0.000000
vn 0.999936 -0.011298 -0.000000
vn 0.999893 -0.014654 -0.000000
vn 0.999893 -0.014654 -0.000000
vn 0.000000 -1.000000 0.000000
vn 0.000000 -1.000000 0.000000
vn 0.000000 -1.000000 0.000000
vn 0.000000 -1.000000 0.000000
vn 0.000000 -0.014654 0.999893
vn 0.000000 -0.014654 0.999893
vn 0.000000 -0.011298 0.999936
vn 0.000000 -0.011298 0.999936
vn -0.000000 -0.014654 -0.999893
vn -0.000000 -0.014654 -0.999893
vn -0.000000 -0.011298 -0.999936
vn -0.000000 -0.011298 -0.999936
vn 0.999234 -0.039141 -0.000000
vn 0.999234 -0.039141 -0.000000
vn -0.000000 -0.039141 -0.999234
vn -0.000000 -0.039141 -0.999234
vn -0.999234 -0.039141 0.000000
vn -0.999234 -0.039141 0.000000
vn 0.000000 -0.039141 0.999234
vn 0.000000 -0.039141 0.999234
s 1
g ChairLegFront ChairLegFront1
usemtl lambert4SG
f 39/44/73 40/45/74 32/46/75 31/59/76
s off
f 31//77 32//78 34//79 33//80
s 2
f 33/49/81 34/48/82 37/50/83 38/51/84
s off
f 35/60/85 36/53/86 30/54/87 29/58/88
s 3
f 40/45/89 37/50/90 34/48/91 32/46/92
s 4
f 38/51/93 39/56/94 31/47/95 33/49/96
s 2
f 38/51/84 37/50/83 36/53/97 35/52/98
s 4
f 35/52/99 29/55/100 39/56/94 38/51/93
s 1
f 29/57/101 30/54/102 40/45/74 39/44/73
s 3
f 30/54/103 36/53/104 37/50/90 40/45/89
g default
v -17.323941 1.526161 -23.956095
v -17.323941 1.526161 -22.091868
v -18.251265 58.473842 -24.883419
v -18.251265 58.473842 -21.164543
v -14.532389 58.473842 -24.883419
v -14.532389 58.473842 -21.164543
v -15.459714 1.526161 -23.956095
v -15.459714 1.526161 -22.091868
v -14.838208 14.512124 -24.577601
v -17.945447 14.512124 -24.577601
v -17.945447 14.512124 -21.470361
v -14.838208 14.512124 -21.470361
v -15.193910 5.464879 -24.221900
v -17.589745 5.464879 -24.221900
v -17.589745 5.464879 -21.826062
v -15.193910 5.464879 -21.826062
v -14.522628 25.536383 -24.893182
v -18.261029 25.536383 -24.893182
v -18.261029 25.536383 -21.154781
v -14.522628 25.536383 -21.154781
vt 0.810732 0.224502
vt 0.834722 0.224812
vt 0.833530 0.436263
vt 0.809625 0.436129
vt 0.857425 0.436392
vt 0.881316 0.436536
vt 0.858704 0.224755
vt 0.882719 0.224879
vt 0.811182 0.068648
vt 0.847503 0.070670
vt 0.835212 0.071290
vt 0.823040 0.070682
vt 0.865767 0.093924
vt 0.819891 0.095789
vt 0.815083 0.153704
vt 0.795218 0.151758
vt 0.835193 0.096508
vt 0.835005 0.154390
vt 0.850519 0.095876
vt 0.854952 0.153854
vt 0.786720 0.224352
vt 0.874805 0.152051
vt 0.804681 0.093710
vt 0.823784 0.058685
vt 0.859520 0.068681
vt 0.835753 0.059370
vt 0.785731 0.435998
vt 0.786811 0.222423
vt 0.882611 0.222880
vn -0.999987 -0.005174 0.000000
vn -0.999987 -0.005174 0.000000
vn -1.000000 0.000296 0.000000
vn -1.000000 0.000296 0.000000
vn 0.000000 1.000000 0.000000
vn 0.000000 1.000000 0.000000
vn 0.000000 1.000000 0.000000
vn 0.000000 1.000000 0.000000
vn 1.000000 0.000296 -0.000000
vn 1.000000 0.000296 -0.000000
vn 0.999987 -0.005174 -0.000000
vn 0.999987 -0.005174 -0.000000
vn 0.000000 -1.000000 0.000000
vn 0.000000 -1.000000 0.000000
vn 0.000000 -1.000000 0.000000
vn 0.000000 -1.000000 0.000000
vn 0.000000 -0.005174 0.999987
vn 0.000000 -0.005174 0.999987
vn 0.000000 0.000296 1.000000
vn 0.000000 0.000296 1.000000
vn -0.000000 -0.005174 -0.999987
vn -0.000000 -0.005174 -0.999987
vn -0.000000 0.000296 -1.000000
vn -0.000000 0.000296 -1.000000
vn -0.000000 -0.043078 -0.999072
vn -0.000000 -0.043078 -0.999072
vn -0.000000 -0.031496 -0.999504
vn -0.000000 -0.031496 -0.999504
vn -0.999072 -0.043078 0.000000
vn -0.999072 -0.043078 0.000000
vn -0.999504 -0.031497 0.000000
vn -0.999504 -0.031497 0.000000
vn 0.000000 -0.043078 0.999072
vn 0.000000 -0.043078 0.999072
vn 0.000000 -0.031496 0.999504
vn 0.000000 -0.031496 0.999504
vn 0.999504 -0.031496 -0.000000
vn 0.999504 -0.031496 -0.000000
vn 0.999072 -0.043078 -0.000000
vn 0.999072 -0.043078 -0.000000
vn -0.000000 -0.067332 -0.997731
vn -0.000000 -0.067332 -0.997731
vn -0.997731 -0.067332 0.000000
vn -0.997731 -0.067332 0.000000
vn 0.000000 -0.067332 0.997731
vn 0.000000 -0.067332 0.997731
vn 0.997731 -0.067332 -0.000000
vn 0.997731 -0.067332 -0.000000
s 1
g ChairLegBack ChairLegBack1
usemtl lambert4SG
f 58/61/105 59/62/106 44/63/107 43/64/108
s off
f 43//109 44//110 46//111 45//112
s 2
f 45/66/113 46/65/114 60/67/115 57/68/116
s off
f 47/84/117 48/86/118 42/71/119 41/72/120
s 3
f 59/62/121 60/67/122 46/65/123 44/63/124
s 4
f 57/81/125 58/61/126 43/64/127 45/87/128
f 53/83/129 54/74/130 50/75/131 49/76/132
s 1
f 54/74/133 55/77/134 51/78/135 50/75/136
s 3
f 55/77/137 56/79/138 52/80/139 51/78/140
s 2
f 49/82/141 52/80/142 56/79/143 53/73/144
s 4
f 47/69/145 41/72/146 54/74/130 53/83/129
s 1
f 41/72/147 42/71/148 55/77/134 54/74/133
s 3
f 42/71/149 48/70/150 56/79/138 55/77/137
s 2
f 53/73/144 56/79/143 48/70/151 47/85/152
s 4
f 49/76/132 50/75/131 58/61/126 57/88/125
s 1
f 50/75/136 51/78/135 59/62/106 58/61/105
s 3
f 51/78/140 52/80/139 60/67/122 59/62/121
s 2
f 57/89/116 60/67/115 52/80/142 49/82/141
g default
v 15.784463 1.526161 -23.956095
v 15.784463 1.526161 -22.091868
v 14.857138 58.473842 -24.883419
v 14.857138 58.473842 -21.164543
v 18.576014 58.473842 -24.883419
v 18.576014 58.473842 -21.164543
v 17.648690 1.526161 -23.956095
v 17.648690 1.526161 -22.091868
v 18.270196 14.512124 -24.577601
v 15.162957 14.512124 -24.577601
v 15.162957 14.512124 -21.470361
v 18.270196 14.512124 -21.470361
v 17.914494 5.464879 -24.221900
v 15.518659 5.464879 -24.221900
v 15.518659 5.464879 -21.826062
v 17.914494 5.464879 -21.826062
v 18.585776 25.536383 -24.893182
v 14.847375 25.536383 -24.893182
v 14.847375 25.536383 -21.154781
v 18.585776 25.536383 -21.154781
vt 0.810732 0.224502
vt 0.834722 0.224812
vt 0.833530 0.436263
vt 0.809625 0.436129
vt 0.857425 0.436392
vt 0.881316 0.436536
vt 0.858704 0.224755
vt 0.882719 0.224879
vt 0.811182 0.068648
vt 0.847503 0.070670
vt 0.835212 0.071290
vt 0.823040 0.070682
vt 0.865767 0.093924
vt 0.819891 0.095789
vt 0.815083 0.153704
vt 0.795218 0.151758
vt 0.835193 0.096508
vt 0.835005 0.154390
vt 0.850519 0.095876
vt 0.854952 0.153854
vt 0.786720 0.224352
vt 0.874805 0.152051
vt 0.804681 0.093710
vt 0.823784 0.058685
vt 0.859520 0.068681
vt 0.835753 0.059370
vt 0.785731 0.435998
vt 0.786811 0.222423
vt 0.882611 0.222880
vn -0.999987 -0.005174 0.000000
vn -0.999987 -0.005174 0.000000
vn -1.000000 0.000296 0.000000
vn -1.000000 0.000296 0.000000
vn 0.000000 1.000000 0.000000
vn 0.000000 1.000000 0.000000
vn 0.000000 1.000000 0.000000
vn 0.000000 1.000000 0.000000
vn 1.000000 0.000296 -0.000000
vn 1.000000 0.000296 -0.000000
vn 0.999987 -0.005174 -0.000000
vn 0.999987 -0.005174 -0.000000
vn 0.000000 -1.000000 0.000000
vn 0.000000 -1.000000 0.000000
vn 0.000000 -1.000000 0.000000
vn 0.000000 -1.000000 0.000000
vn 0.000000 -0.005174 0.999987
vn 0.000000 -0.005174 0.999987
vn 0.000000 0.000296 1.000000
vn 0.000000 0.000296 1.000000
vn -0.000000 -0.005174 -0.999987
vn -0.000000 -0.005174 -0.999987
vn -0.000000 0.000296 -1.000000
vn -0.000000 0.000296 -1.000000
vn -0.000000 -0.043078 -0.999072
vn -0.000000 -0.043078 -0.999072
vn -0.000000 -0.031496 -0.999504
vn -0.000000 -0.031496 -0.999504
vn -0.999072 -0.043078 0.000000
vn -0.999072 -0.043078 0.000000
vn -0.999504 -0.031497 0.000000
vn -0.999504 -0.031497 0.000000
vn 0.000000 -0.043078 0.999072
vn 0.000000 -0.043078 0.999072
vn 0.000000 -0.031496 0.999504
vn 0.000000 -0.031496 0.999504
vn 0.999504 -0.031496 -0.000000
vn 0.999504 -0.031496 -0.000000
vn 0.999072 -0.043078 -0.000000
vn 0.999072 -0.043078 -0.000000
vn -0.000000 -0.067332 -0.997731
vn -0.000000 -0.067332 -0.997731
vn -0.997731 -0.067332 0.000000
vn -0.997731 -0.067332 0.000000
vn 0.000000 -0.067332 0.997731
vn 0.000000 -0.067332 0.997731
vn 0.997731 -0.067332 -0.000000
vn 0.997731 -0.067332 -0.000000
s 1
g ChairLegBack ChairLegBack1
usemtl lambert4SG
f 78/90/153 79/91/154 64/92/155 63/93/156
s off
f 63//157 64//158 66//159 65//160
s 2
f 65/95/161 66/94/162 80/96/163 77/97/164
s off
f 67/113/165 68/115/166 62/100/167 61/101/168
s 3
f 79/91/169 80/96/170 66/94/171 64/92/172
s 4
f 77/110/173 78/90/174 63/93/175 65/116/176
f 73/112/177 74/103/178 70/104/179 69/105/180
s 1
f 74/103/181 75/106/182 71/107/183 70/104/184
s 3
f 75/106/185 76/108/186 72/109/187 71/107/188
s 2
f 69/111/189 72/109/190 76/108/191 73/102/192
s 4
f 67/98/193 61/101/194 74/103/178 73/112/177
s 1
f 61/101/195 62/100/196 75/106/182 74/103/181
s 3
f 62/100/197 68/99/198 76/108/186 75/106/185
s 2
f 73/102/192 76/108/191 68/99/199 67/114/200
s 4
f 69/105/180 70/104/179 78/90/174 77/117/173
s 1
f 70/104/184 71/107/183 79/91/154 78/90/153
s 3
f 71/107/188 72/109/187 80/96/170 79/91/169
s 2
f 77/118/164 80/96/163 72/109/190 69/111/189
g default
v -15.523444 56.949032 -19.888245
v 15.435468 56.949032 -19.888245
v -15.523444 79.395264 -22.926023
v 15.435468 79.395264 -22.926023
v -15.523444 79.395264 -31.376417
v 15.435468 79.395264 -31.376417
v -15.523444 56.949032 -28.338638
v 15.435468 56.949032 -28.338638
v 25.560568 62.158089 -21.572891
v 25.560568 62.158089 -13.122492
v 26.880644 72.394020 -21.572891
v 26.880644 72.394020 -13.122492
v -25.648542 62.158089 -21.572891
v -25.648542 62.158089 -13.122492
v -26.968624 72.394020 -13.122492
v -26.968624 72.394020 -21.572891
v 25.560568 62.158089 -21.491446
v 25.560568 62.158089 -13.063999
v 26.880644 72.394020 -21.491446
v 26.880644 72.394020 -13.063999
v -25.648542 62.158089 -21.491446
v -25.648542 62.158089 -13.063999
v -26.968624 72.394020 -13.063999
v -26.968624 72.394020 -21.491446
v 27.894110 65.017014 -18.303387
v 27.894112 65.017014 -11.497511
v 29.421648 68.347359 -18.303387
v 29.421648 68.347359 -11.497511
v -27.982088 65.017014 -18.303387
v -27.982088 65.017014 -11.497511
v -29.509630 68.347359 -11.497511
v -29.509630 68.347359 -18.303387
vt 0.768879 0.770948
vt 0.916759 0.767796
vt 0.914697 0.566626
vt 0.969712 0.568001
vt 0.566613 0.771152
vt 0.711576 0.569883
vt 0.971245 0.765254
vt 0.713645 0.769217
vt 0.766057 0.566866
vt 0.621197 0.864048
vt 0.692147 0.406499
vt 0.674630 0.446119
vt 0.686945 0.851066
vt 0.652971 0.437475
vt 0.650317 0.394237
vt 0.769655 0.906946
vt 0.810852 0.892326
vt 0.820017 0.935349
vt 0.776710 0.929397
vt 0.617073 0.477079
vt 0.743992 0.494080
vt 0.683096 0.488633
vt 0.796317 0.485182
vt 0.564499 0.571137
vt 0.860770 0.474274
vt 0.913939 0.478937
vt 0.800856 0.851939
vt 0.865251 0.861329
vt 0.748423 0.844294
vt 0.918201 0.855425
vt 0.709598 0.425116
vt 0.687909 0.474177
vt 0.623857 0.459592
vt 0.620571 0.406052
vt 0.742429 0.891456
vt 0.793442 0.873353
vt 0.805871 0.964384
vt 0.752246 0.957016
vt 0.818723 0.914505
vt 0.777526 0.929125
vt 0.670817 0.397069
vt 0.653301 0.436690
vt 0.648870 0.346768
vt 0.655318 0.371458
vt 0.859194 0.881783
vt 0.832904 0.900545
vn 0.124994 0.131154 0.983451
vn -0.124994 0.131154 0.983451
vn -0.108652 0.131661 0.985322
vn 0.108652 0.131661 0.985322
vn -0.204389 0.978890 0.000000
vn 0.204389 0.978890 0.000000
vn 0.110119 0.993918 0.000000
vn -0.110119 0.993918 0.000000
vn -0.108652 -0.131661 -0.985322
vn 0.108652 -0.131661 -0.985322
vn 0.124994 -0.131154 -0.983451
vn -0.124994 -0.131154 -0.983451
vn -0.090808 -0.995868 0.000000
vn 0.090808 -0.995868 0.000000
vn 0.154975 -0.987918 0.000000
vn -0.154975 -0.987918 0.000000
vn 0.908948 -0.416909 0.000000
vn 0.908948 -0.416909 0.000000
vn 0.908948 -0.416909 0.000000
vn 0.908948 -0.416909 0.000000
vn -0.908948 -0.416911 0.000000
vn -0.908948 -0.416911 0.000000
vn -0.908948 -0.416911 0.000000
vn -0.908948 -0.416911 0.000000
vn 0.457477 -0.889221 0.000000
vn 0.457478 -0.889221 0.000000
vn 0.601108 -0.098001 -0.793136
vn 0.601108 -0.098001 -0.793136
vn 0.521828 0.853051 0.000000
vn 0.521828 0.853051 0.000000
vn -0.601108 0.098001 0.793136
vn -0.601108 0.098001 0.793136
vn -0.457478 -0.889221 0.000000
vn -0.457478 -0.889221 0.000000
vn 0.601108 0.098001 0.793136
vn 0.601108 0.098001 0.793136
vn -0.521828 0.853051 0.000000
vn -0.521828 0.853051 0.000000
vn -0.601108 -0.098001 -0.793137
vn -0.601108 -0.098001 -0.793136
vn 0.000000 0.000000 0.000000
vn 0.000000 0.000000 0.000000
vn 0.000000 0.000000 0.000000
vn 0.000000 0.000000 0.000000
vn 0.991787 -0.127905 0.000000
vn 0.991787 -0.127905 0.000000
vn 0.991787 -0.127905 0.000000
vn 0.991787 -0.127905 0.000000
vn 0.000000 -0.000000 0.000000
vn 0.000000 -0.000000 0.000000
vn 0.000000 -0.000000 0.000000
vn 0.000000 -0.000000 0.000000
vn -0.991786 0.127906 0.000000
vn -0.991786 0.127906 0.000000
vn -0.991786 0.127906 0.000000
vn -0.991786 0.127906 0.000000
vn 0.000000 -0.000000 0.000000
vn 0.000000 -0.000000 0.000000
vn 0.000000 -0.000000 0.000000
vn 0.000000 -0.000000 0.000000
vn 0.991786 0.127907 0.000000
vn 0.991786 0.127907 0.000000
vn 0.991786 0.127907 0.000000
vn 0.991786 0.127907 0.000000
vn 0.000000 -1.000000 0.000000
vn 0.000000 -0.000000 0.000000
vn 0.000000 -1.000000 0.000000
vn 0.000000 -0.000000 0.000000
vn -0.991786 -0.127905 0.000000
vn -0.991786 -0.127905 0.000000
vn -0.991786 -0.127905 0.000000
vn -0.991786 -0.127905 0.000000
vn 0.774697 -0.632332 0.000000
vn 0.774697 -0.632332 0.000000
vn 0.774697 -0.632332 0.000000
vn 0.774697 -0.632332 0.000000
vn 0.769269 -0.161473 -0.618185
vn 0.769269 -0.161473 -0.618185
vn 0.769269 -0.161473 -0.618185
vn 0.769269 -0.161473 -0.618185
vn 0.846883 0.531780 0.000000
vn 0.846883 0.531780 0.000000
vn 0.846883 0.531780 0.000000
vn 0.846883 0.531780 0.000000
vn -0.518561 0.108848 0.848084
vn -0.518561 0.108848 0.848084
vn -0.518561 0.108848 0.848084
vn -0.518561 0.108848 0.848084
vn -0.774697 -0.632332 0.000000
vn -0.774697 -0.632332 0.000000
vn -0.774697 -0.632332 0.000000
vn -0.774697 -0.632332 0.000000
vn 0.518560 0.108848 0.848085
vn 0.518560 0.108848 0.848085
vn 0.518560 0.108848 0.848085
vn 0.518560 0.108848 0.848085
vn -0.846882 0.531780 0.000000
vn -0.846882 0.531780 0.000000
vn -0.846882 0.531780 0.000000
vn -0.846882 0.531780 0.000000
vn -0.769268 -0.161473 -0.618186
vn -0.769268 -0.161473 -0.618186
vn -0.769268 -0.161473 -0.618186
vn -0.769268 -0.161473 -0.618186
s 1
g pCube6
usemtl lambert5SG
f 81/119/201 82/127/202 84/121/203 83/120/204
s 2
f 83/120/205 84/121/206 86/122/207 85/125/208
s 3
f 85/123/209 86/142/210 88/124/211 87/126/212
s 4
f 87/126/213 88/124/214 82/127/215 81/119/216
s off
f 106/129/217 105/130/218 107/160/219 108/159/220
f 109/134/221 110/135/222 111/157/223 112/158/224
s 4
f 82/127/215 88/124/214 89/139/225 90/141/226
s 3
f 88/124/211 86/142/210 91/138/227 89/140/228
s 2
f 86/122/207 84/121/206 92/143/229 91/144/230
s 1
f 84/121/203 82/127/202 90/141/231 92/143/232
s 4
f 87/126/213 81/119/216 94/145/233 93/147/234
s 1
f 81/119/201 83/120/204 95/146/235 94/145/236
s 2
f 83/120/205 85/125/208 96/148/237 95/146/238
s 3
f 85/123/209 87/126/212 93/131/239 96/128/240
s off
f 90//241 89//242 97//243 98//244
f 89//245 91//246 99//247 97//248
f 91//249 92//250 100//251 99//252
f 92//253 90//254 98//255 100//256
f 93//257 94//258 102//259 101//260
f 94//261 95//262 103//263 102//264
f 95//265 96//266 104//267 103//268
f 96//269 93//270 101//271 104//272
f 98/149/273 97/150/274 105/130/275 106/129/276
f 97/150/277 99/151/278 107/132/279 105/130/280
f 99/151/281 100/152/282 108/133/283 107/132/284
f 100/152/285 98/161/286 106/162/287 108/133/288
f 101/153/289 102/154/290 110/135/291 109/134/292
f 102/154/293 103/163/294 111/164/295 110/135/296
f 103/155/297 104/156/298 112/137/299 111/136/300
f 104/156/301 101/153/302 109/134/303 112/137/304
