# This file uses centimeters as units for non-parametric coordinates.

mtllib BasicBookshelf.mtl
g default
v -1.128641 0.149237 2.916762
v 1.128641 0.149237 2.916762
v -1.128641 0.450763 2.916762
v 1.128641 0.450763 2.916762
v -1.128641 0.450763 -2.916762
v 1.128641 0.450763 -2.916762
v -1.128641 0.149237 -2.916762
v 1.128641 0.149237 -2.916762
vt 0.358574 0.738722
vt 0.035060 0.752818
vt 0.035148 0.736922
vt 0.342678 0.738633
vt 0.666766 0.621435
vt 0.343429 0.603739
vt 0.343341 0.619635
vt 0.035810 0.617923
vt 0.019252 0.736833
vt 0.666104 0.740433
vt 0.359236 0.619723
vt 0.019915 0.617835
vt 0.035899 0.602027
vt 0.342590 0.754529
vn 0.000000 0.000000 1.000000
vn 0.000000 0.000000 1.000000
vn 0.000000 0.000000 1.000000
vn 0.000000 0.000000 1.000000
vn 0.000000 1.000000 0.000000
vn 0.000000 1.000000 0.000000
vn 0.000000 1.000000 0.000000
vn 0.000000 1.000000 0.000000
vn 0.000000 0.000000 -1.000000
vn 0.000000 0.000000 -1.000000
vn 0.000000 0.000000 -1.000000
vn 0.000000 0.000000 -1.000000
vn 0.000000 -1.000000 0.000000
vn 0.000000 -1.000000 0.000000
vn 0.000000 -1.000000 0.000000
vn 0.000000 -1.000000 0.000000
vn 1.000000 0.000000 0.000000
vn 1.000000 0.000000 0.000000
vn 1.000000 0.000000 0.000000
vn 1.000000 0.000000 0.000000
vn -1.000000 0.000000 0.000000
vn -1.000000 0.000000 0.000000
vn -1.000000 0.000000 0.000000
vn -1.000000 0.000000 0.000000
s off
g initialShadingGroup pCube1
f 1/9/1 2/12/2 4/8/3 3/3/4
f 3/3/5 4/8/6 6/7/7 5/4/8
f 5/4/9 6/7/10 8/11/11 7/1/12
f 7/1/13 8/11/14 2/5/15 1/10/16
f 2/13/17 8/6/18 6/7/19 4/8/20
f 7/14/21 1/2/22 3/3/23 5/4/24
g default
v -1.128641 0.147040 2.916762
v 1.128641 0.147040 2.916762
v -1.128641 0.448566 2.916762
v 1.128641 0.448566 2.916762
v -1.128641 0.448566 -2.916762
v 1.128641 0.448566 -2.916762
v -1.128641 0.147040 -2.916762
v 1.128641 0.147040 -2.916762
vn 0.000000 0.000000 1.000000
vn 0.000000 0.000000 1.000000
vn 0.000000 0.000000 1.000000
vn 0.000000 0.000000 1.000000
vn 0.000000 1.000000 0.000000
vn 0.000000 1.000000 0.000000
vn 0.000000 1.000000 0.000000
vn 0.000000 1.000000 0.000000
vn 0.000000 0.000000 -1.000000
vn 0.000000 0.000000 -1.000000
vn 0.000000 0.000000 -1.000000
vn 0.000000 0.000000 -1.000000
vn 0.000000 -1.000000 0.000000
vn 0.000000 -1.000000 0.000000
vn 0.000000 -1.000000 0.000000
vn 0.000000 -1.000000 0.000000
vn 1.000000 0.000000 0.000000
vn 1.000000 0.000000 0.000000
vn 1.000000 0.000000 0.000000
vn 1.000000 0.000000 0.000000
vn -1.000000 0.000000 0.000000
vn -1.000000 0.000000 0.000000
vn -1.000000 0.000000 0.000000
vn -1.000000 0.000000 0.000000
s off
g initialShadingGroup pCube2
f 9//25 10//26 12//27 11//28
f 11//29 12//30 14//31 13//32
f 13//33 14//34 16//35 15//36
f 15//37 16//38 10//39 9//40
f 10//41 16//42 14//43 12//44
f 15//45 9//46 11//47 13//48
g default
v -1.250000 0.183809 -2.795821
v -0.750000 0.183809 -2.795821
v -1.250000 1.938039 2.942007
v -0.750000 1.938039 2.942007
v -1.250000 2.416191 2.795821
v -0.750000 2.416191 2.795821
v -1.250000 0.661961 -2.942007
v -0.750000 0.661961 -2.942007
vt 0.714117 0.683530
vt 0.744866 0.093400
vt 0.718137 0.388310
vt 0.718446 0.365601
vt 0.691717 0.660512
vt 0.699448 0.092781
vt 0.695737 0.365292
vt 0.673028 0.364983
vt 0.714426 0.660821
vt 0.722157 0.093090
vt 0.691408 0.683221
vt 0.676738 0.092472
vt 0.741155 0.365910
vt 0.695428 0.388001
vn 0.000000 -0.956305 0.292372
vn 0.000000 -0.956305 0.292372
vn 0.000000 -0.956305 0.292372
vn 0.000000 -0.956305 0.292372
vn 0.000000 0.292372 0.956305
vn 0.000000 0.292372 0.956305
vn 0.000000 0.292372 0.956305
vn 0.000000 0.292372 0.956305
vn 0.000000 0.956305 -0.292372
vn 0.000000 0.956305 -0.292372
vn 0.000000 0.956305 -0.292372
vn 0.000000 0.956305 -0.292372
vn 0.000000 -0.292372 -0.956305
vn 0.000000 -0.292372 -0.956305
vn 0.000000 -0.292372 -0.956305
vn 0.000000 -0.292372 -0.956305
vn 1.000000 0.000000 0.000000
vn 1.000000 0.000000 0.000000
vn 1.000000 0.000000 0.000000
vn 1.000000 0.000000 0.000000
vn -1.000000 0.000000 0.000000
vn -1.000000 0.000000 0.000000
vn -1.000000 0.000000 0.000000
vn -1.000000 0.000000 0.000000
s off
g initialShadingGroup pCube12
f 17/23/49 18/19/50 20/28/51 19/17/52
f 19/17/53 20/28/54 22/21/55 21/18/56
f 21/18/57 22/21/58 24/20/59 23/24/60
f 23/15/61 24/25/62 18/19/63 17/23/64
f 18/26/65 24/20/66 22/21/67 20/22/68
f 23/24/69 17/16/70 19/27/71 21/18/72
g default
v -1.128641 4.149237 2.916762
v 1.128641 4.149237 2.916762
v -1.128641 4.450763 2.916762
v 1.128641 4.450763 2.916762
v -1.128641 4.450763 -2.916762
v 1.128641 4.450763 -2.916762
v -1.128641 4.149237 -2.916762
v 1.128641 4.149237 -2.916762
vt 0.358490 0.555230
vt 0.034976 0.569326
vt 0.035064 0.553430
vt 0.342594 0.555142
vt 0.666682 0.437943
vt 0.343345 0.420248
vt 0.343257 0.436143
vt 0.035727 0.434432
vt 0.019169 0.553342
vt 0.666020 0.556942
vt 0.359152 0.436232
vt 0.019831 0.434343
vt 0.035815 0.418536
vt 0.342506 0.571038
vn 0.000000 0.000000 1.000000
vn 0.000000 0.000000 1.000000
vn 0.000000 0.000000 1.000000
vn 0.000000 0.000000 1.000000
vn 0.000000 1.000000 0.000000
vn 0.000000 1.000000 0.000000
vn 0.000000 1.000000 0.000000
vn 0.000000 1.000000 0.000000
vn 0.000000 0.000000 -1.000000
vn 0.000000 0.000000 -1.000000
vn 0.000000 0.000000 -1.000000
vn 0.000000 0.000000 -1.000000
vn 0.000000 -1.000000 0.000000
vn 0.000000 -1.000000 0.000000
vn 0.000000 -1.000000 0.000000
vn 0.000000 -1.000000 0.000000
vn 1.000000 0.000000 0.000000
vn 1.000000 0.000000 0.000000
vn 1.000000 0.000000 0.000000
vn 1.000000 0.000000 0.000000
vn -1.000000 0.000000 0.000000
vn -1.000000 0.000000 0.000000
vn -1.000000 0.000000 0.000000
vn -1.000000 0.000000 0.000000
s off
g initialShadingGroup pCube1pCube4
f 25/37/73 26/40/74 28/36/75 27/31/76
f 27/31/77 28/36/78 30/35/79 29/32/80
f 29/32/81 30/35/82 32/39/83 31/29/84
f 31/29/85 32/39/86 26/33/87 25/38/88
f 26/41/89 32/34/90 30/35/91 28/36/92
f 31/42/93 25/30/94 27/31/95 29/32/96
g default
v -1.250000 2.194808 -2.795821
v -0.750000 2.194808 -2.795821
v -1.250000 3.949039 2.942007
v -0.750000 3.949039 2.942007
v -1.250000 4.427192 2.795821
v -0.750000 4.427192 2.795821
v -1.250000 2.672961 -2.942007
v -0.750000 2.672961 -2.942007
vt 0.773245 0.075114
vt 0.740037 0.665112
vt 0.767995 0.370315
vt 0.767591 0.393023
vt 0.795549 0.098226
vt 0.785453 0.665920
vt 0.790299 0.393427
vt 0.813007 0.393830
vt 0.772841 0.097822
vt 0.762745 0.665516
vt 0.795953 0.075518
vt 0.808160 0.666323
vt 0.744883 0.392619
vt 0.790703 0.370719
vn 0.000000 -0.956305 0.292372
vn 0.000000 -0.956305 0.292372
vn 0.000000 -0.956305 0.292372
vn 0.000000 -0.956305 0.292372
vn 0.000000 0.292371 0.956305
vn 0.000000 0.292371 0.956305
vn 0.000000 0.292371 0.956305
vn 0.000000 0.292371 0.956305
vn 0.000000 0.956305 -0.292372
vn 0.000000 0.956305 -0.292372
vn 0.000000 0.956305 -0.292372
vn 0.000000 0.956305 -0.292372
vn 0.000000 -0.292372 -0.956305
vn 0.000000 -0.292372 -0.956305
vn 0.000000 -0.292372 -0.956305
vn 0.000000 -0.292372 -0.956305
vn 1.000000 0.000000 0.000000
vn 1.000000 0.000000 0.000000
vn 1.000000 0.000000 0.000000
vn 1.000000 0.000000 0.000000
vn -1.000000 0.000000 0.000000
vn -1.000000 0.000000 0.000000
vn -1.000000 0.000000 0.000000
vn -1.000000 0.000000 0.000000
s off
g initialShadingGroup pCube1pCube13
f 33/51/97 34/47/98 36/56/99 35/45/100
f 35/45/101 36/56/102 38/49/103 37/46/104
f 37/46/105 38/49/106 40/48/107 39/52/108
f 39/43/109 40/53/110 34/47/111 33/51/112
f 34/54/113 40/48/114 38/49/115 36/50/116
f 39/52/117 33/44/118 35/55/119 37/46/120
g default
v -1.250000 2.673377 2.942007
v -0.750000 2.673377 2.942007
v -1.250000 4.427608 -2.795821
v -0.750000 4.427608 -2.795821
v -1.250000 3.949455 -2.942007
v -0.750000 3.949455 -2.942007
v -1.250000 2.195225 2.795821
v -0.750000 2.195225 2.795821
vt 0.926009 0.366867
vt 0.925584 0.392800
vt 0.931534 0.029732
vt 0.931109 0.055665
vt 0.951518 0.393225
vt 0.977451 0.393650
vt 0.972351 0.704851
vt 0.946418 0.704426
vt 0.899651 0.392375
vt 0.951943 0.367292
vt 0.894551 0.703576
vt 0.957043 0.056090
vt 0.957468 0.030157
vt 0.920484 0.704001
vn 0.000000 0.956305 0.292372
vn 0.000000 0.956305 0.292372
vn 0.000000 0.956305 0.292372
vn 0.000000 0.956305 0.292372
vn 0.000000 0.292372 -0.956305
vn 0.000000 0.292372 -0.956305
vn 0.000000 0.292372 -0.956305
vn 0.000000 0.292372 -0.956305
vn 0.000000 -0.956305 -0.292372
vn 0.000000 -0.956305 -0.292372
vn 0.000000 -0.956305 -0.292372
vn 0.000000 -0.956305 -0.292372
vn 0.000000 -0.292372 0.956305
vn 0.000000 -0.292372 0.956305
vn 0.000000 -0.292372 0.956305
vn 0.000000 -0.292372 0.956305
vn 1.000000 0.000000 0.000000
vn 1.000000 0.000000 0.000000
vn 1.000000 0.000000 0.000000
vn 1.000000 0.000000 0.000000
vn -1.000000 0.000000 0.000000
vn -1.000000 0.000000 0.000000
vn -1.000000 0.000000 0.000000
vn -1.000000 0.000000 0.000000
s off
g initialShadingGroup pCube1pCube9
f 41/58/121 42/61/122 44/64/123 43/70/124
f 43/59/125 44/69/126 46/68/127 45/60/128
f 45/60/129 46/68/130 48/66/131 47/57/132
f 47/57/133 48/66/134 42/61/135 41/58/136
f 42/61/137 48/62/138 46/63/139 44/64/140
f 47/65/141 41/58/142 43/70/143 45/67/144
g default
v -1.128641 2.149237 2.916762
v 1.128641 2.149237 2.916762
v -1.128641 2.450763 2.916762
v 1.128641 2.450763 2.916762
v -1.128641 2.450763 -2.916762
v 1.128641 2.450763 -2.916762
v -1.128641 2.149237 -2.916762
v 1.128641 2.149237 -2.916762
vt 0.359182 0.924032
vt 0.035668 0.938128
vt 0.035756 0.922232
vt 0.343286 0.923944
vt 0.667375 0.806745
vt 0.344037 0.789049
vt 0.343949 0.804945
vt 0.036419 0.803233
vt 0.019861 0.922144
vt 0.666712 0.925744
vt 0.359844 0.805033
vt 0.020523 0.803145
vt 0.036507 0.787338
vt 0.343198 0.939839
vn 0.000000 0.000000 1.000000
vn 0.000000 0.000000 1.000000
vn 0.000000 0.000000 1.000000
vn 0.000000 0.000000 1.000000
vn 0.000000 1.000000 0.000000
vn 0.000000 1.000000 0.000000
vn 0.000000 1.000000 0.000000
vn 0.000000 1.000000 0.000000
vn 0.000000 0.000000 -1.000000
vn 0.000000 0.000000 -1.000000
vn 0.000000 0.000000 -1.000000
vn 0.000000 0.000000 -1.000000
vn 0.000000 -1.000000 0.000000
vn 0.000000 -1.000000 0.000000
vn 0.000000 -1.000000 0.000000
vn 0.000000 -1.000000 0.000000
vn 1.000000 0.000000 0.000000
vn 1.000000 0.000000 0.000000
vn 1.000000 0.000000 0.000000
vn 1.000000 0.000000 0.000000
vn -1.000000 0.000000 0.000000
vn -1.000000 0.000000 0.000000
vn -1.000000 0.000000 0.000000
vn -1.000000 0.000000 0.000000
s off
g initialShadingGroup pCube1pCube3
f 49/79/145 50/82/146 52/78/147 51/73/148
f 51/73/149 52/78/150 54/77/151 53/74/152
f 53/74/153 54/77/154 56/81/155 55/71/156
f 55/71/157 56/81/158 50/75/159 49/80/160
f 50/83/161 56/76/162 54/77/163 52/78/164
f 55/84/165 49/72/166 51/73/167 53/74/168
g default
v -1.250000 0.661961 2.942007
v -0.750000 0.661961 2.942007
v -1.250000 2.416191 -2.795821
v -0.750000 2.416191 -2.795821
v -1.250000 1.938039 -2.942007
v -0.750000 1.938039 -2.942007
v -1.250000 0.183809 2.795821
v -0.750000 0.183809 2.795821
vt 0.841934 0.034387
vt 0.842136 0.060323
vt 0.844552 0.371557
vt 0.844753 0.397493
vt 0.868072 0.060122
vt 0.894008 0.059920
vt 0.896424 0.371154
vt 0.870488 0.371355
vt 0.847170 0.708727
vt 0.816199 0.060524
vt 0.873105 0.708526
vt 0.867870 0.034186
vt 0.818616 0.371758
vt 0.870689 0.397292
vn 0.000000 0.956305 0.292372
vn 0.000000 0.956305 0.292372
vn 0.000000 0.956305 0.292372
vn 0.000000 0.956305 0.292372
vn 0.000000 0.292372 -0.956305
vn 0.000000 0.292372 -0.956305
vn 0.000000 0.292372 -0.956305
vn 0.000000 0.292372 -0.956305
vn 0.000000 -0.956305 -0.292372
vn 0.000000 -0.956305 -0.292372
vn 0.000000 -0.956305 -0.292372
vn 0.000000 -0.956305 -0.292372
vn 0.000000 -0.292372 0.956305
vn 0.000000 -0.292372 0.956305
vn 0.000000 -0.292372 0.956305
vn 0.000000 -0.292372 0.956305
vn 1.000000 0.000000 0.000000
vn 1.000000 0.000000 0.000000
vn 1.000000 0.000000 0.000000
vn 1.000000 0.000000 0.000000
vn -1.000000 0.000000 0.000000
vn -1.000000 0.000000 0.000000
vn -1.000000 0.000000 0.000000
vn -1.000000 0.000000 0.000000
s off
g initialShadingGroup pCube1pCube10
f 57/86/169 58/89/170 60/92/171 59/87/172
f 59/87/173 60/92/174 62/98/175 61/88/176
f 61/88/177 62/98/178 64/95/179 63/93/180
f 63/85/181 64/96/182 58/89/183 57/86/184
f 58/89/185 64/90/186 62/91/187 60/92/188
f 63/94/189 57/86/190 59/87/191 61/97/192
g default
v 0.750000 0.000000 3.250000
v 1.250000 0.000000 3.250000
v 0.750000 5.000000 3.250000
v 1.250000 5.000000 3.250000
v 0.750000 5.000000 2.750000
v 1.250000 5.000000 2.750000
v 0.750000 0.000000 2.750000
v 1.250000 0.000000 2.750000
vt 0.032340 0.341286
vt 0.058313 0.341151
vt 0.318041 0.339798
vt 0.344014 0.339663
vt 0.058178 0.315178
vt 0.058042 0.289205
vt 0.317771 0.287852
vt 0.317906 0.313825
vt 0.058448 0.367124
vt 0.603607 0.312337
vt 0.343879 0.313690
vt 0.032205 0.315314
vt 0.603743 0.338310
vt 0.318177 0.365771
vn 0.000000 0.000000 1.000000
vn 0.000000 0.000000 1.000000
vn 0.000000 0.000000 1.000000
vn 0.000000 0.000000 1.000000
vn 0.000000 1.000000 0.000000
vn 0.000000 1.000000 0.000000
vn 0.000000 1.000000 0.000000
vn 0.000000 1.000000 0.000000
vn 0.000000 0.000000 -1.000000
vn 0.000000 0.000000 -1.000000
vn 0.000000 0.000000 -1.000000
vn 0.000000 0.000000 -1.000000
vn 0.000000 -1.000000 0.000000
vn 0.000000 -1.000000 0.000000
vn 0.000000 -1.000000 0.000000
vn 0.000000 -1.000000 0.000000
vn 1.000000 0.000000 0.000000
vn 1.000000 0.000000 0.000000
vn 1.000000 0.000000 0.000000
vn 1.000000 0.000000 0.000000
vn -1.000000 0.000000 0.000000
vn -1.000000 0.000000 0.000000
vn -1.000000 0.000000 0.000000
vn -1.000000 0.000000 0.000000
s off
g initialShadingGroup pCube1pCube4pCube5
f 65/100/193 66/103/194 68/106/195 67/101/196
f 67/101/197 68/106/198 70/109/199 69/102/200
f 69/102/201 70/109/202 72/108/203 71/111/204
f 71/99/205 72/110/206 66/103/207 65/100/208
f 66/103/209 72/104/210 70/105/211 68/106/212
f 71/107/213 65/100/214 67/101/215 69/112/216
g default
v -1.250000 0.000000 3.250000
v -0.750000 0.000000 3.250000
v -1.250000 5.000000 3.250000
v -0.750000 5.000000 3.250000
v -1.250000 5.000000 2.750000
v -0.750000 5.000000 2.750000
v -1.250000 0.000000 2.750000
v -0.750000 0.000000 2.750000
vt 0.636333 0.219237
vt 0.610367 0.219851
vt 0.350708 0.225989
vt 0.324742 0.226603
vt 0.610981 0.245817
vt 0.611595 0.271783
vt 0.351935 0.277921
vt 0.351322 0.251955
vt 0.065082 0.232741
vt 0.609753 0.193885
vt 0.065696 0.258707
vt 0.636947 0.245203
vt 0.350094 0.200023
vt 0.325356 0.252569
vn 0.000000 0.000000 1.000000
vn 0.000000 0.000000 1.000000
vn 0.000000 0.000000 1.000000
vn 0.000000 0.000000 1.000000
vn 0.000000 1.000000 0.000000
vn 0.000000 1.000000 0.000000
vn 0.000000 1.000000 0.000000
vn 0.000000 1.000000 0.000000
vn 0.000000 0.000000 -1.000000
vn 0.000000 0.000000 -1.000000
vn 0.000000 0.000000 -1.000000
vn 0.000000 0.000000 -1.000000
vn 0.000000 -1.000000 0.000000
vn 0.000000 -1.000000 0.000000
vn 0.000000 -1.000000 0.000000
vn 0.000000 -1.000000 0.000000
vn 1.000000 0.000000 0.000000
vn 1.000000 0.000000 0.000000
vn 1.000000 0.000000 0.000000
vn 1.000000 0.000000 0.000000
vn -1.000000 0.000000 0.000000
vn -1.000000 0.000000 0.000000
vn -1.000000 0.000000 0.000000
vn -1.000000 0.000000 0.000000
s off
g initialShadingGroup pCube1pCube4pCube6
f 73/114/217 74/117/218 76/120/219 75/115/220
f 75/115/221 76/120/222 78/126/223 77/116/224
f 77/116/225 78/126/226 80/123/227 79/121/228
f 79/113/229 80/124/230 74/117/231 73/114/232
f 74/117/233 80/118/234 78/119/235 76/120/236
f 79/122/237 73/114/238 75/115/239 77/125/240
g default
v -1.250000 0.000000 -2.750000
v -0.750000 0.000000 -2.750000
v -1.250000 5.000000 -2.750000
v -0.750000 5.000000 -2.750000
v -1.250000 5.000000 -3.250000
v -0.750000 5.000000 -3.250000
v -1.250000 0.000000 -3.250000
v -0.750000 0.000000 -3.250000
vt 0.012470 0.167621
vt 0.038442 0.167380
vt 0.298163 0.164965
vt 0.324135 0.164723
vt 0.038200 0.141408
vt 0.037959 0.115436
vt 0.297680 0.113021
vt 0.297921 0.138993
vt 0.583856 0.162308
vt 0.038683 0.193352
vt 0.583614 0.136336
vt 0.012228 0.141649
vt 0.298404 0.190937
vt 0.323893 0.138751
vn 0.000000 0.000000 1.000000
vn 0.000000 0.000000 1.000000
vn 0.000000 0.000000 1.000000
vn 0.000000 0.000000 1.000000
vn 0.000000 1.000000 0.000000
vn 0.000000 1.000000 0.000000
vn 0.000000 1.000000 0.000000
vn 0.000000 1.000000 0.000000
vn 0.000000 0.000000 -1.000000
vn 0.000000 0.000000 -1.000000
vn 0.000000 0.000000 -1.000000
vn 0.000000 0.000000 -1.000000
vn 0.000000 -1.000000 0.000000
vn 0.000000 -1.000000 0.000000
vn 0.000000 -1.000000 0.000000
vn 0.000000 -1.000000 0.000000
vn 1.000000 0.000000 0.000000
vn 1.000000 0.000000 0.000000
vn 1.000000 0.000000 0.000000
vn 1.000000 0.000000 0.000000
vn -1.000000 0.000000 0.000000
vn -1.000000 0.000000 0.000000
vn -1.000000 0.000000 0.000000
vn -1.000000 0.000000 0.000000
s off
g initialShadingGroup pCube1pCube4pCube7
f 81/128/241 82/131/242 84/134/243 83/129/244
f 83/129/245 84/134/246 86/140/247 85/130/248
f 85/130/249 86/140/250 88/137/251 87/135/252
f 87/127/253 88/138/254 82/131/255 81/128/256
f 82/131/257 88/132/258 86/133/259 84/134/260
f 87/136/261 81/128/262 83/129/263 85/139/264
g default
v 0.750000 0.000000 -2.750000
v 1.250000 0.000000 -2.750000
v 0.750000 5.000000 -2.750000
v 1.250000 5.000000 -2.750000
v 0.750000 5.000000 -3.250000
v 1.250000 5.000000 -3.250000
v 0.750000 0.000000 -3.250000
v 1.250000 0.000000 -3.250000
vt 0.632283 0.037189
vt 0.606317 0.037803
vt 0.346657 0.043941
vt 0.320691 0.044555
vt 0.606930 0.063769
vt 0.607544 0.089735
vt 0.347885 0.095873
vt 0.347271 0.069907
vt 0.061032 0.050693
vt 0.605703 0.011837
vt 0.061646 0.076659
vt 0.632896 0.063155
vt 0.346043 0.017975
vt 0.321305 0.070521
vn 0.000000 0.000000 1.000000
vn 0.000000 0.000000 1.000000
vn 0.000000 0.000000 1.000000
vn 0.000000 0.000000 1.000000
vn 0.000000 1.000000 0.000000
vn 0.000000 1.000000 0.000000
vn 0.000000 1.000000 0.000000
vn 0.000000 1.000000 0.000000
vn 0.000000 0.000000 -1.000000
vn 0.000000 0.000000 -1.000000
vn 0.000000 0.000000 -1.000000
vn 0.000000 0.000000 -1.000000
vn 0.000000 -1.000000 0.000000
vn 0.000000 -1.000000 0.000000
vn 0.000000 -1.000000 0.000000
vn 0.000000 -1.000000 0.000000
vn 1.000000 0.000000 0.000000
vn 1.000000 0.000000 0.000000
vn 1.000000 0.000000 0.000000
vn 1.000000 0.000000 0.000000
vn -1.000000 0.000000 0.000000
vn -1.000000 0.000000 0.000000
vn -1.000000 0.000000 0.000000
vn -1.000000 0.000000 0.000000
s off
g initialShadingGroup pCube1pCube4pCube8
f 89/142/265 90/145/266 92/148/267 91/143/268
f 91/143/269 92/148/270 94/154/271 93/144/272
f 93/144/273 94/154/274 96/151/275 95/149/276
f 95/141/277 96/152/278 90/145/279 89/142/280
f 90/145/281 96/146/282 94/147/283 92/148/284
f 95/150/285 89/142/286 91/143/287 93/153/288
